<?xml version="1.0" encoding="UTF-8"?> 
<svg version="1.1" xmlns="http://www.w3.org/2000/svg" width="1280" height="981">
<path d="M0 0 C1.07727938 -0.00445668 1.07727938 -0.00445668 2.17632198 -0.0090034 C4.56563949 -0.01762506 6.9549065 -0.01919309 9.34423828 -0.02069092 C11.06475429 -0.02532385 12.78526927 -0.03034915 14.50578308 -0.03573608 C19.16944976 -0.04881927 23.83310206 -0.05529746 28.49678421 -0.05974674 C31.4164677 -0.06268503 34.33614732 -0.06679133 37.25582886 -0.07125092 C46.40803222 -0.08491723 55.56022668 -0.09458722 64.71243954 -0.09845281 C75.2447103 -0.10292675 85.77685084 -0.12044747 96.30908203 -0.1494534 C104.47075155 -0.17114309 112.63238464 -0.18116102 120.79408264 -0.18249393 C125.65873228 -0.18353706 130.52325937 -0.18933904 135.38787842 -0.20731354 C139.97129467 -0.22391996 144.55449792 -0.22588944 149.13793373 -0.21717453 C150.8087045 -0.21641074 152.47948733 -0.22065863 154.1502285 -0.23063278 C174.04452096 -0.34231556 190.97871527 3.45819647 207.53955078 15.14044189 C208.16345703 15.57743408 208.78736328 16.01442627 209.43017578 16.46466064 C224.76785346 28.39794725 231.63995558 47.70774928 238.1305542 65.27920532 C239.57945526 69.20097109 241.0460205 73.1160691 242.51126099 77.03175354 C243.29731654 79.13274829 244.08251961 81.23406217 244.86691284 83.3356781 C249.48192918 95.69220242 254.1997757 108.00922306 258.91455078 120.32794189 C260.68994413 124.9696192 262.46460085 129.61157761 264.23876953 134.25372314 C264.89721107 135.97644188 264.89721107 135.97644188 265.56895447 137.73396301 C269.06684859 146.89106312 272.54423638 156.05584667 276.0160675 165.22285461 C279.85734326 175.36422841 283.71299318 185.50005952 287.58190918 195.63092041 C288.46705659 197.95046923 289.34977702 200.27092629 290.23193359 202.59161377 C291.58875554 206.15605361 292.96711527 209.71182017 294.35205078 213.26544189 C294.70614014 214.19985107 295.06022949 215.13426025 295.42504883 216.09698486 C299.06265915 225.29442689 304.94401417 233.94971089 314.06689453 238.36309814 C319.96191051 240.77823685 324.95505159 242.26523148 331.3538931 242.26644975 C333.15051646 242.27043346 333.15051646 242.27043346 334.98343524 242.27449766 C336.31678855 242.27239628 337.65014173 242.27020502 338.98349476 242.26793385 C340.40253392 242.26916747 341.82157275 242.27084078 343.24061093 242.27291515 C347.16208666 242.2773731 351.08353907 242.27558313 355.00501547 242.27284185 C359.2631313 242.27097197 363.52124221 242.27491253 367.77935666 242.27815503 C375.2498533 242.28305647 382.72034362 242.28429952 390.19084167 242.28318977 C401.30007992 242.28158225 412.40931064 242.28573676 423.51854736 242.29127025 C441.06068161 242.29992977 458.60281486 242.30528599 476.14495088 242.30847176 C503.99740643 242.31361058 531.84984913 242.32907117 559.70229835 242.34804825 C565.62756286 242.35206994 571.55282744 242.35599079 577.47809201 242.3599146 C579.24995579 242.36108859 579.24995579 242.36108859 581.05761478 242.36228629 C583.45135796 242.36387188 585.84510113 242.3654567 588.23884431 242.36704077 C590.64149114 242.36863205 593.04413797 242.3702263 595.44678479 242.37182351 C623.79321692 242.39066157 652.13964992 242.40774368 680.48608398 242.42340088 C682.34700827 242.42443426 682.34700827 242.42443426 684.24552698 242.42548852 C724.46745305 242.44774644 764.68937541 242.45958759 804.91130665 242.46706744 C846.25409445 242.4748318 887.59685688 242.49588944 928.93962949 242.53261004 C934.77865838 242.53778376 940.61768741 242.54279111 946.45671654 242.54768944 C948.18049232 242.54913987 948.18049232 242.54913987 949.93909185 242.55061961 C968.43587655 242.56576374 986.93263585 242.56665412 1005.42942505 242.56203231 C1024.02242222 242.55764851 1042.61536732 242.56755859 1061.20834921 242.59211937 C1072.25419411 242.60625994 1083.29991141 242.60925097 1094.34575844 242.59627685 C1101.72762595 242.58869938 1109.10938855 242.59563185 1116.49123618 242.61425836 C1120.69511214 242.62445054 1124.8987323 242.62841753 1129.10260383 242.61463312 C1132.93472154 242.60219017 1136.76635727 242.60844534 1140.59843599 242.62898392 C1142.6100856 242.63511774 1144.62176665 242.62186221 1146.6333749 242.60757938 C1163.78454821 242.74988482 1178.69286021 247.86747617 1191.25830078 259.79669189 C1203.19342373 272.05880452 1209.49140255 286.48530719 1209.91455078 303.64044189 C1209.47661362 320.71999135 1203.41124607 335.46610622 1191.35986328 347.51544189 C1178.21642435 359.74867037 1163.34266449 364.46018175 1145.68266487 364.39377499 C1144.38988933 364.39687226 1143.0971138 364.39996953 1141.76516324 364.40316066 C1138.17666027 364.41148594 1134.5882625 364.40740323 1130.99975901 364.4013094 C1127.09573602 364.39689491 1123.19173178 364.40410865 1119.28771293 364.40986592 C1112.44527525 364.41836987 1105.60286711 364.41951389 1098.76042557 364.4158535 C1088.585434 364.41046348 1078.41047212 364.41655655 1068.23548389 364.42514229 C1051.11701154 364.43932197 1033.99854744 364.44465684 1016.88006973 364.44540215 C993.50246511 364.44658028 970.12488405 364.46177658 946.74728797 364.48089731 C935.85765317 364.48979685 924.96801788 364.4980662 914.07838249 364.50621891 C912.44314376 364.50744554 912.44314376 364.50744554 910.77486991 364.50869695 C884.82452485 364.52803715 858.87417741 364.5415764 832.92382812 364.55377197 C831.78832867 364.55430877 830.65282922 364.55484556 829.4829207 364.55539862 C802.98666126 364.56789553 776.49040155 364.57867591 749.99414062 364.58746338 C740.80143228 364.59053342 731.60872395 364.59362573 722.41601562 364.59674072 C721.28142786 364.59712254 720.1468401 364.59750435 718.97787089 364.59789773 C693.0766787 364.60665962 667.17549152 364.61781401 641.27430534 364.63787174 C640.18583783 364.63871441 639.09737031 364.63955707 637.97591894 364.64042527 C627.10963081 364.64890804 616.24334321 364.65790298 605.37705611 364.66761704 C600.0312056 364.67237865 594.68535497 364.67699412 589.33950424 364.6815052 C587.76133259 364.68283702 587.76133259 364.68283702 586.15127869 364.68419575 C569.20841061 364.69813429 552.26555854 364.70076672 535.32268558 364.69882555 C518.30080207 364.6970318 501.27895081 364.70566582 484.25707807 364.72513395 C474.14110583 364.7363523 464.02521173 364.73912395 453.90923703 364.7299376 C447.1537247 364.72461498 440.39827732 364.73010992 433.64277817 364.74441434 C429.79264201 364.75225049 425.94266331 364.75533928 422.09252895 364.74519508 C417.94425904 364.73436966 413.79637729 364.74669809 409.64811897 364.76126766 C408.45416466 364.75441927 407.26021035 364.74757088 406.03007561 364.74051496 C395.33379408 364.81417805 386.47734691 366.60925893 378.53955078 374.14044189 C373.7864403 379.29266852 371.59041955 384.79116258 371.50830078 391.81231689 C371.93412006 399.51964591 373.86929726 405.0485694 378.91455078 410.89044189 C387.61137371 418.34486155 394.70347773 419.44142369 405.76853466 419.39377499 C407.4619426 419.3984209 407.4619426 419.3984209 409.1895608 419.40316066 C412.98793168 419.41114767 416.78614602 419.40487018 420.58451843 419.39872742 C423.32912812 419.4004665 426.07373066 419.40523114 428.81833678 419.40986592 C434.79373915 419.41836988 440.76910768 419.41951388 446.74451447 419.4158535 C455.63036227 419.41046339 464.51617609 419.4165567 473.40202008 419.42514229 C488.35246871 419.43932247 503.30290789 419.44465687 518.25336266 419.44540215 C538.67383528 419.44658043 559.09428094 419.46177848 579.51474378 419.48089731 C589.02794764 419.48979692 598.54115205 419.4980663 608.05435658 419.50621891 C609.00673597 419.50703666 609.95911536 419.50785442 610.94035474 419.50869695 C633.61168254 419.5280377 656.28301307 419.54157631 678.9543457 419.55377197 C680.44236958 419.55457716 680.44236958 419.55457716 681.96045455 419.55539862 C705.10406782 419.56789311 728.24768142 419.57867355 751.39129639 419.58746338 C759.41849773 419.59053336 767.44569906 419.59362569 775.47290039 419.59674072 C776.46362418 419.59712254 777.45434798 419.59750435 778.47509371 419.59789773 C801.09699311 419.60666152 823.71888678 419.61782094 846.3407793 419.63787174 C847.76726312 419.63913574 847.76726312 419.63913574 849.2225648 419.64042527 C858.7171964 419.64890868 868.2118274 419.65790376 877.70645782 419.66761704 C882.37776408 419.67237854 887.04907047 419.67699403 891.72037697 419.6815052 C892.63972061 419.68239308 893.55906425 419.68328096 894.50626679 419.68419575 C909.30181069 419.6981259 924.09733624 419.70076758 938.89288571 419.69882555 C953.7630094 419.69703036 968.63309621 419.70568155 983.50320759 419.72513395 C992.33678788 419.7363391 1001.17027877 419.73913614 1010.00386186 419.7299376 C1015.90715723 419.72460496 1021.81037843 419.73013498 1027.71365876 419.74441434 C1031.07547188 419.75223146 1034.43695712 419.75371047 1037.79879066 419.74519508 C1041.42648836 419.73673484 1045.05369305 419.74673818 1048.6813612 419.76126766 C1049.71633017 419.75441927 1050.75129913 419.74757088 1051.8176308 419.74051496 C1068.00158533 419.86708303 1082.78938869 425.6317196 1094.43408203 436.97247314 C1095.12888672 437.68790283 1095.82369141 438.40333252 1096.53955078 439.14044189 C1097.10029297 439.68055908 1097.66103516 440.22067627 1098.23876953 440.77716064 C1108.81071668 451.79307408 1113.06634277 467.76639345 1112.96166992 482.63824463 C1112.34538319 500.72878596 1104.37525635 514.86662768 1091.53955078 527.14044189 C1079.27284671 537.57572514 1064.86528225 541.47290801 1049.04187679 541.39098167 C1047.52174017 541.39517819 1047.52174017 541.39517819 1045.97089371 541.39945948 C1042.58355647 541.40640425 1039.19640132 541.39916792 1035.80906677 541.39199829 C1033.35259334 541.39413749 1030.89612054 541.39716338 1028.43964916 541.40099871 C1023.10316448 541.40735847 1017.76673229 541.40758714 1012.43025017 541.40239525 C1004.49468401 541.39473456 996.55915276 541.39862092 988.62358695 541.40501772 C975.270976 541.41553648 961.91837769 541.41737668 948.56576347 541.41483688 C929.49016601 541.4114179 910.41460019 541.42478677 891.33901123 541.44161135 C883.68162284 541.44829156 876.02423398 541.45443059 868.36684513 541.46056557 C867.09082841 541.46159156 867.09082841 541.46159156 865.78903358 541.46263828 C845.54872954 541.47881013 825.30842353 541.48964991 805.06811523 541.49884033 C803.73997667 541.49944938 803.73997667 541.49944938 802.38500703 541.50007074 C781.72135266 541.5095011 761.05769939 541.51636575 740.39404297 541.51879883 C739.50494121 541.51890539 738.61583945 541.51901196 737.69979521 541.51912175 C733.21633438 541.51965492 728.73287355 541.52016967 724.24941272 541.52068312 C722.92022472 541.52083644 722.92022472 541.52083644 721.56418443 541.52099285 C719.77562052 541.52119841 717.98705661 541.52140096 716.1984927 541.52160051 C686.65427433 541.52498054 657.11008771 541.54188383 627.56588587 541.57370205 C623.39470901 541.57817539 619.22353199 541.58246524 615.05235481 541.58662796 C614.23145209 541.58744842 613.41054936 541.58826888 612.5647708 541.5891142 C599.3504367 541.60186579 586.13614378 541.59986622 572.92180754 541.59199351 C559.64614606 541.58431431 546.37055323 541.59070282 533.09490543 541.61163257 C525.20712588 541.62360643 517.31952875 541.62435618 509.43175382 541.60914005 C503.54448085 541.5989984 497.65736508 541.60962514 491.77010906 541.62835307 C489.38668592 541.63266718 487.00323901 541.63019286 484.61983245 541.6203119 C481.38333977 541.60786637 478.14782787 541.61997575 474.91138363 541.63821983 C473.98329969 541.62874443 473.05521575 541.61926903 472.09900805 541.60950649 C463.02914031 541.71275617 455.85089614 544.96251504 449.27001953 551.17559814 C443.81426026 557.37028643 442.87866231 563.89145791 443.15283203 571.98419189 C444.03290377 579.16699961 446.91608528 584.53942467 452.53955078 589.14044189 C460.27621819 594.84727398 467.78498224 596.44969986 477.24666023 596.39098167 C478.09081836 596.39377935 478.93497648 596.39657703 479.80471516 596.39945948 C482.6283576 596.40640828 485.4517819 596.39916589 488.27542114 596.39199829 C490.32237475 596.39413736 492.36932759 596.39716315 494.41627872 596.40099871 C500.03777974 596.40903822 505.65921421 596.40473212 511.28071499 596.39847994 C517.34498027 596.39394702 523.40923284 596.40098596 529.47349548 596.40678406 C539.98228499 596.41541861 550.49105992 596.41723402 560.99985123 596.41483688 C576.91047135 596.41141703 592.82105354 596.42479013 608.73166346 596.44161135 C615.12006834 596.44829176 621.50847377 596.45443083 627.8968792 596.46056557 C628.60661616 596.46124956 629.31635313 596.46193356 630.04759727 596.46263828 C646.93683971 596.47881222 663.82608449 596.48964999 680.71533203 596.49884033 C681.45417513 596.49924637 682.19301823 596.4996524 682.95425052 596.50007074 C700.18757858 596.509496 717.42090532 596.51636391 734.65423584 596.51879883 C735.76564188 596.51895867 735.76564188 596.51895867 736.89950056 596.51912175 C740.63561567 596.5196549 744.37173078 596.52016966 748.10784589 596.52068312 C748.84623559 596.52078533 749.58462529 596.52088754 750.34539043 596.52099285 C751.83575511 596.52119841 753.32611978 596.52140096 754.81648446 596.52160051 C779.45811521 596.52498371 804.09970793 596.54191615 828.74131889 596.57370205 C832.22365245 596.57817513 835.70598621 596.58246503 839.18832016 596.58662796 C839.87363002 596.58744842 840.55893989 596.58826888 841.26501672 596.5891142 C852.27849071 596.60184549 863.29191521 596.59987546 874.30539176 596.59199351 C885.38129569 596.58429777 896.45713168 596.59105003 907.53302331 596.61163257 C913.5296628 596.62230585 919.52612216 596.62648057 925.52276039 596.61316109 C931.0178183 596.60107842 936.51253907 596.60751275 942.00756787 596.62835307 C943.99006524 596.63264261 945.97259138 596.63025141 947.95506848 596.6203119 C967.70049217 596.52854168 984.13187966 600.12345668 998.89892578 614.25762939 C1011.49735945 628.01154071 1016.73719374 643.8247756 1015.95751953 662.36309814 C1014.75229339 679.35442348 1006.59425372 692.597651 994.53955078 704.14044189 C981.54856199 715.34875557 965.35793762 718.47337193 948.63237 718.39491749 C947.08226186 718.39972721 947.08226186 718.39972721 945.5008384 718.40463409 C942.05754882 718.41289816 938.61443482 718.40702238 935.17114258 718.40113831 C932.66970805 718.40416061 930.16827444 718.40805049 927.66684246 718.41273087 C922.23824019 718.42086556 916.80969064 718.4228144 911.38108444 718.4192276 C903.30840779 718.41390794 895.23576749 718.42002852 887.16309479 718.42831053 C871.90570471 718.44353389 856.64833126 718.44525738 841.39093518 718.44278751 C829.60928475 718.44095358 817.82763975 718.44271654 806.04598999 718.44701195 C804.35227448 718.44761435 802.65855897 718.44821555 800.96484345 718.44881555 C798.41247958 718.44972282 795.86011571 718.45063149 793.30775185 718.4515479 C769.58448588 718.45997472 745.86122196 718.46431492 722.13795471 718.46014118 C721.24403621 718.45998481 720.3501177 718.45982843 719.42911076 718.45966732 C714.89854736 718.45886155 710.36798397 718.45801578 705.83742058 718.45715401 C704.93766159 718.45698293 704.0379026 718.45681184 703.11087818 718.45663557 C701.29134916 718.45628891 699.47182013 718.45594038 697.6522911 718.45558998 C669.33377421 718.45023153 641.01528844 718.45816782 612.69677734 718.47662354 C580.86936069 718.49734185 549.04196331 718.50806671 517.21453953 718.50404805 C513.82073021 718.50365271 510.42692089 718.50329116 507.03311157 718.50295067 C505.77967841 718.50281457 505.77967841 718.50281457 504.50092336 718.50267572 C491.89069331 718.50151013 479.28048275 718.50815505 466.67025757 718.51876259 C452.32966277 718.53081349 437.98911089 718.53237466 423.64851546 718.51997242 C415.625853 718.51334453 407.60329316 718.51497331 399.58063891 718.52856094 C393.58770949 718.53777966 387.59490478 718.53128668 381.60197699 718.51871314 C379.17952725 718.51605761 376.75706553 718.51845949 374.33462751 718.526449 C344.17438349 718.61901217 344.17438349 718.61901217 332.53955078 709.14044189 C331.91306641 708.63770752 331.28658203 708.13497314 330.64111328 707.61700439 C321.40961683 699.35300102 317.7288108 685.85966085 313.50946045 674.55130005 C311.77565236 669.90648154 310.01874201 665.27037125 308.26611328 660.63262939 C307.88983795 659.63515182 307.51356262 658.63767426 307.12588501 657.60997009 C302.45513659 645.24041728 297.68258559 632.91023795 292.91455078 620.57794189 C291.97714517 618.15169878 291.03980844 615.72542905 290.10253906 613.2991333 C288.20045093 608.37563167 286.29791075 603.45230507 284.39501953 598.52911377 C279.73162185 586.46330813 275.07284579 574.39571827 270.41455078 562.32794189 C269.95812195 561.14561981 269.50169312 559.96329773 269.03143311 558.74514771 C262.11017976 540.81556246 255.20501432 522.87983981 248.30950928 504.94033813 C241.73423363 487.83468113 235.14113561 470.73596143 228.53955078 453.64044189 C221.48610963 435.37412701 214.44191408 417.10430627 207.41455078 398.82794189 C206.80012115 397.22999283 206.80012115 397.22999283 206.17327881 395.59976196 C202.88500645 387.04751778 199.59763234 378.49492837 196.31030273 369.94232178 C193.42881202 362.44569777 190.54695335 354.94921535 187.66455078 347.45294189 C187.25509216 346.38804535 186.84563354 345.3231488 186.42376709 344.22598267 C179.34649494 325.8217071 172.24943185 307.42510493 165.14559937 289.03106689 C159.81643856 275.23203618 154.49363943 261.43062924 149.19111633 247.62133789 C147.14249005 242.28629461 145.09218135 236.95191589 143.03686523 231.6194458 C142.63325272 230.57222351 142.2296402 229.52500122 141.813797 228.44604492 C140.99484873 226.32122049 140.17582802 224.19642399 139.35673523 222.07165527 C136.89868028 215.68921453 134.45582833 209.30119119 132.02558804 202.9081068 C129.89591247 197.30724694 127.7524778 191.711744 125.60525513 186.11758423 C124.69754195 183.74514063 123.79464466 181.37084796 122.89694214 178.99459839 C121.648568 175.69184968 120.38308712 172.39612552 119.11376953 169.10137939 C118.75410095 168.13704483 118.39443237 167.17271027 118.02386475 166.17915344 C114.77766786 157.84286366 110.31032922 149.26151248 102.66455078 144.20294189 C101.90400391 143.67829346 101.14345703 143.15364502 100.35986328 142.61309814 C93.31511019 138.93460519 86.78651064 137.69713839 78.89575195 137.73980713 C77.5181797 137.72933853 77.5181797 137.72933853 76.11277771 137.71865845 C73.10259609 137.69880374 70.09276056 137.69918227 67.08251953 137.69903564 C64.97177725 137.68724802 62.86104326 137.67388043 60.75032043 137.65901184 C55.20657992 137.62291961 49.66291284 137.60265717 44.11907959 137.58746338 C35.25831677 137.56259106 26.39771636 137.52261715 17.53710365 137.46556282 C14.45968849 137.4493758 11.38242967 137.4454689 8.30497742 137.44255066 C-14.11778098 137.35844613 -33.24520337 133.40034487 -50.08154297 117.53887939 C-63.7030897 103.80549731 -70.56484433 87.10744009 -70.89794922 67.76544189 C-70.75051376 49.65954847 -63.91592681 33.37011736 -51.46044922 20.14044189 C-37.79674785 6.82141047 -18.87466037 0.04388704 0 0 Z " fill="#0050d3" transform="translate(70.46044921875,-0.14044189453125)"/>
<path d="M0 0 C17.76134079 14.5085371 31.70568222 34.5380088 34.7890625 57.74511719 C37.14939576 82.9766426 33.13064871 107.50097055 17.3125 128 C0.65215599 147.87273548 -20.16157373 160.67729697 -46.25 163.6875 C-47.83209723 163.80900507 -49.41556471 163.91420993 -51 164 C-51.68964844 164.04125 -52.37929688 164.0825 -53.08984375 164.125 C-75.73861587 164.79982375 -98.11081532 156.99221104 -115 142 C-115.6703125 141.47148438 -116.340625 140.94296875 -117.03125 140.3984375 C-134.39346945 126.41220517 -144.1229583 104.12701578 -146.59375 82.35546875 C-148.66131869 58.87110408 -142.65567697 35.54677091 -128.1875 16.75 C-126.81668938 15.14495378 -125.41946824 13.56217959 -124 12 C-123.18917969 11.09636719 -122.37835937 10.19273437 -121.54296875 9.26171875 C-89.928167 -24.20460873 -36.44000072 -27.63366721 0 0 Z " fill="#0050d3" transform="translate(1024,817)"/>
<path d="M0 0 C13.34663283 10.7576278 23.11762515 23.62878384 29.31640625 39.72265625 C29.68507813 40.65722656 30.05375 41.59179688 30.43359375 42.5546875 C38.28608665 64.87984066 36.6123405 90.45556594 26.45703125 111.73828125 C22.81906671 118.98294099 18.59835462 125.55828214 13.31640625 131.72265625 C12.84847656 132.32207031 12.38054687 132.92148437 11.8984375 133.5390625 C-2.15503408 151.13542607 -24.99850761 160.93525472 -46.93359375 163.41015625 C-48.51569098 163.53166132 -50.09915846 163.63686618 -51.68359375 163.72265625 C-52.37324219 163.76390625 -53.06289063 163.80515625 -53.7734375 163.84765625 C-76.72422128 164.53147849 -99.7233681 156.1334975 -116.68359375 140.72265625 C-117.58722656 139.91183594 -118.49085938 139.10101562 -119.421875 138.265625 C-134.40251976 124.11378493 -145.59179436 103.64623739 -146.8605957 82.81689453 C-147.40965206 55.72282259 -147.40965206 55.72282259 -142.68359375 42.72265625 C-142.44753418 42.06797363 -142.21147461 41.41329102 -141.96826172 40.73876953 C-133.59930874 18.15716527 -117.47266732 1.02740227 -96.2109375 -10.09375 C-64.80688596 -24.47976213 -27.48481839 -21.20708082 0 0 Z " fill="#0050d3" transform="translate(581.68359375,817.27734375)"/>
</svg>
